<svg width="24" height="25" viewBox="0 0 24 25" fill="none" xmlns="http://www.w3.org/2000/svg">
<path d="M7 12.66H9.67999C10.39 12.66 10.87 13.2 10.87 13.85V15.34C10.87 15.99 10.39 16.53 9.67999 16.53H8.19C7.54 16.53 7 15.99 7 15.34V12.66Z" stroke="#292D32" stroke-width="1.5" stroke-linecap="round" stroke-linejoin="round"/>
<path d="M7 12.66C7 9.86997 7.52 9.39997 9.09 8.46997" stroke="#292D32" stroke-width="1.5" stroke-linecap="round" stroke-linejoin="round"/>
<path d="M13.1401 12.66H15.8201C16.5301 12.66 17.0101 13.2 17.0101 13.85V15.34C17.0101 15.99 16.5301 16.53 15.8201 16.53H14.3301C13.6801 16.53 13.1401 15.99 13.1401 15.34V12.66Z" stroke="#292D32" stroke-width="1.5" stroke-linecap="round" stroke-linejoin="round"/>
<path d="M13.1401 12.66C13.1401 9.86997 13.6601 9.39997 15.2301 8.46997" stroke="#292D32" stroke-width="1.5" stroke-linecap="round" stroke-linejoin="round"/>
<path d="M12 22.5C17.5228 22.5 22 18.0228 22 12.5C22 6.97715 17.5228 2.5 12 2.5C6.47715 2.5 2 6.97715 2 12.5C2 18.0228 6.47715 22.5 12 22.5Z" stroke="#292D32" stroke-width="1.5" stroke-linecap="round" stroke-linejoin="round"/>
</svg>
